<?xml version="1.0" standalone="no"?>
<!DOCTYPE svg PUBLIC "-//W3C//DTD SVG 20010904//EN"
 "http://www.w3.org/TR/2001/REC-SVG-20010904/DTD/svg10.dtd">
<svg version="1.0" xmlns="http://www.w3.org/2000/svg"
 width="300.000000pt" height="298.000000pt" viewBox="0 0 300.000000 298.000000"
 preserveAspectRatio="xMidYMid meet">
<metadata>
Created by potrace 1.10, written by Peter Selinger 2001-2011
</metadata>
<g transform="translate(0.000000,298.000000) scale(0.100000,-0.100000)"
fill="#000000" stroke="none">
<path d="M5 1490 c0 -822 1 -1159 2 -748 2 412 2 1084 0 1495 -1 412 -2 75 -2
-747z"/>
<path d="M662 1847 c-113 -41 -171 -168 -126 -275 27 -66 95 -123 146 -122 19
1 16 5 -17 22 -113 58 -152 152 -106 254 20 43 76 94 104 94 9 0 19 5 22 10
21 34 142 -10 196 -71 44 -49 52 -43 14 13 -29 43 -114 88 -164 87 -20 0 -51
-6 -69 -12z"/>
<path d="M1889 1771 c-50 -16 -68 -32 -78 -69 -6 -21 -17 -46 -25 -57 -12 -17
-13 -13 -8 33 6 62 -13 97 -35 66 -18 -24 -16 -75 3 -102 13 -19 14 -28 4 -52
-12 -29 -35 -34 -24 -6 10 25 -16 95 -43 115 -45 36 -57 29 -49 -31 9 -64 27
-95 62 -104 44 -11 25 -46 -44 -81 -7 -3 30 -53 39 -53 5 0 9 7 9 15 0 8 -5
15 -12 15 -6 0 5 16 25 35 42 41 47 42 70 15 11 -13 29 -20 51 -20 41 0 109
27 101 40 -3 5 -30 17 -60 26 -47 15 -58 16 -82 4 -15 -8 -32 -16 -37 -18 -12
-6 4 42 18 50 6 4 29 4 52 1 40 -5 104 17 104 36 0 10 -35 21 -65 21 -17 0
-18 -2 -5 -11 12 -8 10 -9 -8 -4 -16 5 -30 1 -43 -11 -25 -22 -33 -14 -13 14
8 12 25 22 37 22 42 0 97 59 97 105 0 16 -3 17 -41 6z"/>
<path d="M1320 1625 c0 -63 4 -105 10 -105 6 0 10 24 10 53 0 48 3 55 26 66
14 6 30 9 35 6 5 -4 9 -33 9 -66 0 -42 4 -59 13 -59 10 0 12 16 9 63 -2 34 -5
68 -7 75 -5 14 -51 16 -60 2 -13 -22 -25 -8 -25 30 0 22 -4 40 -10 40 -6 0
-10 -42 -10 -105z"/>
<path d="M804 1706 c-3 -8 -4 -42 -2 -76 1 -33 0 -60 -3 -60 -3 0 -20 32 -39
70 -26 53 -39 70 -54 70 -20 0 -21 -6 -21 -95 0 -69 3 -95 13 -95 8 0 12 23
13 83 l0 82 42 -82 c28 -57 47 -83 59 -83 16 0 18 11 18 94 0 88 -12 129 -26
92z"/>
<path d="M1220 1691 c0 -11 -6 -22 -12 -25 -10 -5 -10 -7 0 -12 7 -3 12 -26
12 -58 0 -29 5 -57 12 -64 15 -15 58 -16 58 -2 0 6 -9 10 -20 10 -18 0 -20 7
-20 55 0 42 3 55 15 55 8 0 15 5 15 10 0 6 -7 10 -15 10 -8 0 -15 9 -15 20 0
11 -7 20 -15 20 -8 0 -15 -9 -15 -19z"/>
<path d="M879 1663 c-1 -5 0 -24 1 -44 1 -20 -3 -55 -9 -77 -9 -31 -19 -43
-49 -58 -20 -9 -31 -19 -24 -22 17 -5 78 32 75 47 -2 6 4 11 12 11 12 0 15 15
15 75 0 43 -4 75 -10 75 -5 0 -10 -3 -11 -7z"/>
<path d="M950 1618 c0 -29 -3 -63 -6 -75 -5 -17 -2 -23 10 -23 13 0 16 11 16
55 0 54 1 56 30 62 17 3 30 12 30 19 0 17 -14 18 -41 4 -13 -7 -19 -7 -19 0 0
5 -4 10 -10 10 -5 0 -10 -24 -10 -52z"/>
<path d="M1060 1600 c0 -79 11 -92 61 -73 16 7 29 7 29 2 0 -5 5 -9 10 -9 6 0
10 32 10 75 0 43 -4 75 -10 75 -5 0 -10 -24 -10 -53 0 -46 -3 -55 -24 -66 -36
-20 -46 -6 -46 60 0 33 -4 59 -10 59 -6 0 -10 -30 -10 -70z"/>
<path d="M1480 1596 c0 -54 4 -76 13 -76 9 0 12 20 10 72 -2 100 -23 103 -23
4z"/>
<path d="M2226 1480 c-16 -5 -46 -23 -67 -40 -21 -16 -44 -30 -51 -30 -8 0
-19 -5 -26 -12 -9 -9 -12 -9 -12 0 0 7 -7 12 -15 12 -12 0 -15 -15 -15 -76 0
-56 3 -75 13 -72 7 3 13 26 15 54 4 52 17 78 38 70 8 -3 17 0 21 7 14 22 137
86 166 87 27 0 127 -49 128 -63 0 -7 2 -38 5 -69 4 -48 2 -58 -11 -58 -8 0
-15 -6 -15 -13 0 -8 15 -13 40 -13 28 -1 40 3 40 12 0 8 -7 14 -15 14 -12 0
-15 12 -14 53 1 52 1 52 14 22 28 -64 28 -97 -2 -155 -39 -77 -92 -112 -169
-113 -36 0 -71 6 -91 16 -65 34 -109 124 -100 204 3 27 1 41 -4 36 -5 -5 -10
-39 -11 -75 -2 -56 1 -71 25 -107 74 -112 213 -132 314 -46 75 64 96 186 44
255 -25 34 -27 60 -6 60 8 0 15 5 15 10 0 6 -17 10 -39 10 -21 0 -55 7 -74 15
-40 16 -96 18 -141 5z"/>
<path d="M1464 1465 c-4 -8 -4 -25 -1 -36 5 -18 2 -20 -20 -14 -16 4 -34 0
-49 -10 -20 -13 -24 -24 -24 -64 0 -60 19 -79 78 -78 l42 2 0 102 c0 94 -11
137 -26 98z m-6 -122 c-3 -44 -5 -48 -30 -51 -22 -3 -29 2 -34 22 -3 14 -3 37
0 51 5 20 13 25 37 25 30 0 30 -1 27 -47z"/>
<path d="M701 1367 c-35 -103 -35 -107 -20 -107 5 0 15 14 20 30 10 26 16 30
50 30 25 0 39 -5 39 -13 0 -18 27 -53 35 -46 3 4 -9 50 -27 103 -43 127 -56
127 -97 3z m62 31 c2 -13 8 -31 12 -40 6 -15 2 -18 -25 -18 -27 0 -31 3 -25
18 3 9 9 29 12 44 6 31 18 29 26 -4z"/>
<path d="M1247 1453 c-6 -12 -58 -171 -58 -180 -1 -21 20 -10 29 17 10 27 15
30 51 30 33 0 41 -3 41 -19 0 -19 26 -48 35 -39 10 10 -62 193 -77 196 -9 2
-18 -1 -21 -5z m36 -68 l16 -45 -30 0 c-16 0 -29 3 -29 6 0 10 23 84 26 84 1
0 9 -20 17 -45z"/>
<path d="M2277 1453 c-14 -26 -58 -175 -54 -186 3 -6 11 3 18 21 12 28 18 32
51 32 32 0 40 -4 48 -25 5 -14 16 -25 23 -25 20 0 -45 184 -66 188 -8 2 -17
-1 -20 -5z m36 -71 l15 -42 -33 0 -32 0 15 45 c8 25 16 44 18 43 1 -2 9 -22
17 -46z"/>
<path d="M871 1401 c-24 -24 -29 -87 -8 -115 13 -18 42 -23 70 -11 12 5 17 3
17 -8 0 -25 -27 -39 -60 -32 -31 7 -43 -8 -14 -19 28 -11 62 -6 78 10 12 12
16 36 16 100 0 73 -2 84 -17 84 -10 0 -28 3 -40 6 -14 4 -28 -1 -42 -15z m77
-55 c2 -24 -2 -42 -10 -47 -42 -27 -82 18 -60 67 10 20 18 25 40 22 24 -3 27
-8 30 -42z"/>
<path d="M1758 1409 c-10 -5 -18 -21 -18 -35 0 -21 8 -29 40 -41 22 -9 40 -22
40 -28 0 -19 -29 -26 -52 -14 -27 14 -38 1 -14 -17 25 -17 47 -18 70 -1 29 21
17 59 -26 80 -21 9 -38 21 -38 26 0 15 30 22 49 11 23 -12 35 -1 20 17 -13 15
-47 17 -71 2z"/>
<path d="M1899 1401 c-18 -15 -23 -28 -23 -60 3 -107 124 -108 124 -1 0 69
-52 101 -101 61z m72 -35 c14 -29 5 -72 -16 -80 -37 -14 -64 27 -51 79 9 34
52 35 67 1z"/>
<path d="M1020 1335 c0 -43 4 -75 10 -75 6 0 10 25 10 56 0 53 2 56 30 67 17
6 30 15 30 19 0 12 -35 9 -48 -4 -9 -9 -12 -9 -12 0 0 7 -4 12 -10 12 -6 0
-10 -32 -10 -75z"/>
<path d="M1130 1334 c0 -50 4 -74 11 -72 16 5 18 148 2 148 -9 0 -13 -22 -13
-76z"/>
<path d="M1523 1398 c2 -7 15 -41 27 -76 13 -34 27 -61 33 -59 9 3 57 119 57
139 0 5 -6 8 -12 6 -7 -3 -20 -29 -29 -59 l-16 -54 -19 58 c-10 34 -23 57 -32
57 -8 0 -12 -6 -9 -12z"/>
<path d="M1672 1338 c2 -46 7 -73 16 -76 9 -3 12 16 12 72 0 62 -3 76 -15 76
-13 0 -15 -12 -13 -72z"/>
</g>
</svg>
